<svg width="42" height="52" viewBox="0 0 42 52" fill="none" xmlns="http://www.w3.org/2000/svg">
<path d="M0.00861518 25.5582C0.00861518 18.9064 0.0285905 12.2546 5.43069e-05 5.60278C-0.0113602 2.8576 1.77786 0.714527 4.16635 0.172339C4.83695 0.0210967 5.55035 0.00968222 6.24378 0.0068286C12.5902 -0.0045859 18.9339 0.00112135 25.2775 0.00397497C25.3945 0.00397497 25.5143 0.0153895 25.6313 0.00968222C26.125 -0.0160004 26.4845 0.189461 26.8384 0.546163C31.4556 5.18616 36.0841 9.81473 40.7298 14.4233C41.2435 14.9313 41.4547 15.4506 41.4547 16.1698C41.4404 25.9948 41.4547 35.817 41.4489 45.642C41.4489 48.9037 38.7437 51.0696 36.0727 51.0582C31.5754 51.0353 27.0781 51.0639 22.5808 51.0639C16.9335 51.0639 11.289 51.061 5.64167 51.0639C4.72851 51.0639 3.85245 50.9269 3.03346 50.5046C1.2528 49.5914 0.242612 48.1446 0.0485659 46.1499C5.43052e-05 45.6563 0.0114688 45.1569 0.0114688 44.6603C0.0114688 38.291 0.0114688 31.9246 0.0114688 25.5553L0.00861518 25.5582ZM24.8494 2.10139C24.6497 2.10139 24.4984 2.10139 24.3443 2.10139C18.6399 2.10139 12.9327 2.10139 7.22828 2.10139C6.50632 2.10139 5.78435 2.09283 5.06238 2.10139C3.59277 2.12422 2.12315 3.56815 2.12315 4.99211C2.12315 18.7009 2.12315 32.4069 2.12315 46.1157C2.12315 46.2669 2.13742 46.4239 2.17452 46.5694C2.5141 47.9363 3.83247 48.975 5.2336 48.9807C5.53038 48.9807 5.8243 48.975 6.12108 48.975C16.1601 48.975 26.1963 48.9665 36.2354 48.9864C37.9219 48.9893 39.3658 47.2857 39.3601 45.8845C39.3201 36.2735 39.3373 26.6597 39.3373 17.0487C39.3373 16.9003 39.3373 16.7519 39.3373 16.6007C39.2402 16.5949 39.1917 16.5892 39.1461 16.5892C36.164 16.5921 33.1791 16.6092 30.1971 16.5892C29.6749 16.5864 29.1327 16.5036 28.6333 16.3495C26.3618 15.639 24.8494 13.5359 24.8494 11.1559C24.8494 8.2909 24.8494 5.42586 24.8494 2.56082V2.09283V2.10139ZM37.7649 14.5518C34.1494 10.9533 30.5167 7.33779 26.904 3.74508C26.9126 3.69942 26.8955 3.74508 26.8955 3.78503C26.884 6.24485 26.8555 8.70467 26.8726 11.1645C26.884 12.714 27.8743 14.0438 29.3068 14.4148C29.8661 14.5603 30.4768 14.5432 31.0646 14.546C33.3104 14.5603 35.5562 14.5518 37.7649 14.5518Z" fill="white"/>
<path d="M11.8852 40.9992H29.5577V36.7929H31.6694C31.6694 37.0012 31.6694 37.2096 31.6694 37.4207C31.6694 38.8532 31.6808 40.2858 31.6608 41.7154C31.6551 42.0122 31.5667 42.3233 31.4468 42.5972C31.2699 42.9939 30.8961 43.128 30.4794 43.1337C29.9715 43.1422 29.4607 43.1422 28.9528 43.1422C23.0001 43.1422 17.0474 43.1451 11.0948 43.1479C10.33 43.1479 9.82492 42.7427 9.81065 41.9865C9.77926 40.2601 9.79923 38.5336 9.79923 36.7844H11.8881V40.9992H11.8852Z" fill="white"/>
<path d="M21.7416 24.4509V34.704H19.7184V24.3882C18.3258 25.5639 17.2015 26.9165 15.9601 28.0979C15.4493 27.6128 14.9557 27.1448 14.4277 26.6425C14.8101 26.263 15.1725 25.8977 15.5406 25.5382C16.956 24.1428 18.3686 22.7445 19.7868 21.3519C19.9038 21.2349 20.0208 21.1179 20.155 21.018C20.5145 20.7469 20.9511 20.7441 21.2993 21.0295C21.5732 21.2549 21.8215 21.5089 22.0726 21.7571C23.6335 23.3095 25.1888 24.8676 26.7554 26.4114C26.958 26.6111 26.9694 26.7281 26.7582 26.9165C26.3302 27.3017 25.9193 27.7069 25.4798 28.1264C24.2585 26.925 23.02 25.7094 21.7416 24.4538V24.4509Z" fill="white"/>
</svg>
